<svg id="Camada_1" data-name="Camada 1" xmlns="http://www.w3.org/2000/svg" viewBox="0 0 84.33 84.33"><defs><style>.cls-1{fill:#f2f2f2;}.cls-2{fill:#cfcfcf;}.cls-3{fill:#e6e6e6;}.cls-4{fill:#7c7c7c;}</style></defs><title>iconePrancheta 4</title><path class="cls-1" d="M70.61,82.94H15.39a3.82,3.82,0,0,1-3.81-3.81V4.86a3.82,3.82,0,0,1,3.81-3.81h43.8L74.42,16.29V79.13A3.82,3.82,0,0,1,70.61,82.94Z"/><path class="cls-2" d="M60.69,18l13.73-1.39L60.27,2.24,59.7,17A1,1,0,0,0,60.69,18Z"/><path class="cls-3" d="M59.79,16.72l14.69-.56L59.32,1l-.57,14.69A1,1,0,0,0,59.79,16.72Z"/><rect class="cls-4" x="26.1" y="24.92" width="34" height="4.2" rx="1" ry="1"/><rect class="cls-4" x="26.1" y="43.92" width="34" height="4.2" rx="1" ry="1"/><rect class="cls-4" x="26.1" y="61.92" width="34" height="4.2" rx="1" ry="1"/></svg>