<svg id="Camada_1" data-name="Camada 1" xmlns="http://www.w3.org/2000/svg" viewBox="0 0 374.5 99"><defs><style>.cls-1{fill:#fff;}.cls-2{fill:#f2f2f2;}.cls-3{fill:#cfcfcf;}.cls-4{fill:#e6e6e6;}.cls-5{fill:none;stroke:#fff;stroke-miterlimit:10;stroke-width:4px;}</style></defs><title>noootesPrancheta 2 cópia</title><rect class="cls-1" x="10.19" y="33" width="4" height="43" rx="1" ry="1"/><rect class="cls-1" x="42.95" y="33" width="4" height="43" rx="1" ry="1"/><rect class="cls-1" x="26.52" y="28.3" width="4" height="52.29" rx="1" ry="1" transform="translate(-27.94 30.17) rotate(-39.08)"/><path class="cls-2" d="M328.61,91.94H273.39a3.82,3.82,0,0,1-3.81-3.81V13.86a3.82,3.82,0,0,1,3.81-3.81h43.8l15.23,15.24V88.13A3.82,3.82,0,0,1,328.61,91.94Z"/><path class="cls-3" d="M318.69,27l13.73-1.39L318.27,11.24,317.7,26A1,1,0,0,0,318.69,27Z"/><path class="cls-4" d="M317.79,25.72l14.69-.56L317.32,10l-.57,14.69A1,1,0,0,0,317.79,25.72Z"/><path class="cls-1" d="M355.29,36.19c-7.39,0-10.21,3.21-10.21,6.73,0,10.26,26.63,5.87,26.63,20.77,0,7.72-6.06,12-16.91,12-8,0-14-3.58-16.41-7.6A2,2,0,0,1,338,67a2.1,2.1,0,0,1,2.25-2,2.31,2.31,0,0,1,2,1c2.26,3.21,6.34,5.87,12.54,5.87,7.75,0,12.12-2.72,12.12-8.15,0-11.56-26.63-6.12-26.63-20.77,0-5.68,4.72-10.56,15-10.56,6.7,0,12.12,2.47,15.08,6.36a1.87,1.87,0,0,1,.42,1.18,2.09,2.09,0,0,1-2.25,2,2.32,2.32,0,0,1-1.83-.8A14.64,14.64,0,0,0,355.29,36.19Z"/><circle class="cls-5" cx="83.38" cy="54.02" r="20"/><circle class="cls-5" cx="139.8" cy="54.02" r="20"/><circle class="cls-5" cx="196.23" cy="54.02" r="20"/><rect class="cls-1" x="284.1" y="33.92" width="34" height="4.2" rx="1" ry="1"/><rect class="cls-1" x="284.1" y="52.92" width="34" height="4.2" rx="1" ry="1"/><rect class="cls-1" x="284.1" y="70.92" width="34" height="4.2" rx="1" ry="1"/><rect class="cls-1" x="230.17" y="34.07" width="34" height="4" rx="1" ry="1"/><rect class="cls-1" x="244.92" y="37" width="4" height="39.07" rx="1" ry="1"/></svg>