<svg xmlns="http://www.w3.org/2000/svg" viewBox="0 0 396.52 81.94"><defs><style>.cls-1{fill:#fff;}.cls-2{fill:none;stroke:#fff;stroke-miterlimit:10;stroke-width:4px;}.cls-3{fill:#707070;}.cls-4{fill:#444;}.cls-5{fill:#5b5a5a;}</style></defs><title>iconeAtivo 6fav</title><g id="Camada_2" data-name="Camada 2"><g id="Camada_1-2" data-name="Camada 1"><rect class="cls-1" y="23.47" width="4" height="43" rx="1" ry="1"/><rect class="cls-1" x="32.76" y="23.47" width="4" height="43" rx="1" ry="1"/><rect class="cls-1" x="16.33" y="18.77" width="4" height="52.29" rx="1" ry="1" transform="translate(-24.21 21.61) rotate(-39.08)"/><path class="cls-1" d="M380.11,27.14c-7.4,0-10.22,3.22-10.22,6.74,0,10.26,26.63,5.87,26.63,20.76,0,7.73-6.06,12-16.91,12-8,0-14-3.59-16.41-7.6a2,2,0,0,1-.35-1.11,2.09,2.09,0,0,1,2.25-2,2.31,2.31,0,0,1,2,1c2.26,3.21,6.34,5.87,12.54,5.87,7.75,0,12.12-2.72,12.12-8.16,0-11.55-26.63-6.12-26.63-20.76,0-5.68,4.72-10.57,15-10.57,6.69,0,12.11,2.48,15.07,6.37a1.87,1.87,0,0,1,.42,1.17,2.1,2.1,0,0,1-2.25,2,2.37,2.37,0,0,1-1.83-.8A14.62,14.62,0,0,0,380.11,27.14Z"/><circle class="cls-2" cx="77.19" cy="44.97" r="20"/><circle class="cls-2" cx="137.61" cy="44.97" r="20"/><circle class="cls-2" cx="198.03" cy="44.97" r="20"/><path class="cls-3" d="M343.05,81.94H287.83A3.82,3.82,0,0,1,284,78.13V3.86A3.82,3.82,0,0,1,287.83.05h43.8l15.23,15.24V78.13A3.82,3.82,0,0,1,343.05,81.94Z"/><path class="cls-4" d="M333.13,17l13.73-1.39L332.71,1.24,332.14,16A1,1,0,0,0,333.13,17Z"/><path class="cls-5" d="M332.23,15.72l14.69-.56L331.76,0l-.57,14.69A1,1,0,0,0,332.23,15.72Z"/><rect class="cls-1" x="298.54" y="23.92" width="34" height="4.2" rx="1" ry="1"/><rect class="cls-1" x="298.54" y="42.92" width="34" height="4.2" rx="1" ry="1"/><rect class="cls-1" x="298.54" y="60.92" width="34" height="4.2" rx="1" ry="1"/><rect class="cls-1" x="234.25" y="23.97" width="34" height="4" rx="1" ry="1"/><rect class="cls-1" x="249" y="26.91" width="4" height="39.07" rx="1" ry="1"/></g></g></svg>